<mxfile host="app.diagrams.net" modified="2021-07-08T11:14:20.539Z" agent="5.0 (Windows NT 10.0; Win64; x64) AppleWebKit/537.36 (KHTML, like Gecko) Chrome/91.0.4472.124 Safari/537.36" etag="2adFMcRUSZI64Xqf_EfG" version="14.8.3" type="github">
  <diagram id="XE6sJf5T8uf_wFqPxUdU" name="Page-1">
    <mxGraphModel dx="1038" dy="587" grid="1" gridSize="10" guides="1" tooltips="1" connect="1" arrows="1" fold="1" page="1" pageScale="1" pageWidth="850" pageHeight="1100" math="0" shadow="0">
      <root>
        <mxCell id="0" />
        <mxCell id="1" parent="0" />
        <mxCell id="oRcW_YH9L-Gpv4BiR_Wo-1" value="1" style="ellipse;whiteSpace=wrap;html=1;aspect=fixed;" vertex="1" parent="1">
          <mxGeometry x="340" y="100" width="60" height="60" as="geometry" />
        </mxCell>
        <mxCell id="oRcW_YH9L-Gpv4BiR_Wo-2" value="2" style="ellipse;whiteSpace=wrap;html=1;aspect=fixed;" vertex="1" parent="1">
          <mxGeometry x="340" y="190" width="60" height="60" as="geometry" />
        </mxCell>
        <mxCell id="oRcW_YH9L-Gpv4BiR_Wo-9" value="3" style="ellipse;whiteSpace=wrap;html=1;aspect=fixed;" vertex="1" parent="1">
          <mxGeometry x="340" y="280" width="60" height="60" as="geometry" />
        </mxCell>
        <mxCell id="oRcW_YH9L-Gpv4BiR_Wo-10" value="4" style="ellipse;whiteSpace=wrap;html=1;aspect=fixed;" vertex="1" parent="1">
          <mxGeometry x="340" y="370" width="60" height="60" as="geometry" />
        </mxCell>
        <mxCell id="oRcW_YH9L-Gpv4BiR_Wo-11" value="" style="endArrow=classic;html=1;exitX=0.5;exitY=1;exitDx=0;exitDy=0;entryX=0.5;entryY=0;entryDx=0;entryDy=0;" edge="1" parent="1" source="oRcW_YH9L-Gpv4BiR_Wo-1" target="oRcW_YH9L-Gpv4BiR_Wo-2">
          <mxGeometry width="50" height="50" relative="1" as="geometry">
            <mxPoint x="300" y="230" as="sourcePoint" />
            <mxPoint x="350" y="180" as="targetPoint" />
          </mxGeometry>
        </mxCell>
        <mxCell id="oRcW_YH9L-Gpv4BiR_Wo-12" value="" style="endArrow=classic;html=1;exitX=0.5;exitY=1;exitDx=0;exitDy=0;entryX=0.5;entryY=0;entryDx=0;entryDy=0;" edge="1" parent="1" source="oRcW_YH9L-Gpv4BiR_Wo-2" target="oRcW_YH9L-Gpv4BiR_Wo-9">
          <mxGeometry width="50" height="50" relative="1" as="geometry">
            <mxPoint x="380" y="170" as="sourcePoint" />
            <mxPoint x="380" y="200" as="targetPoint" />
          </mxGeometry>
        </mxCell>
        <mxCell id="oRcW_YH9L-Gpv4BiR_Wo-13" value="" style="endArrow=classic;html=1;exitX=0.5;exitY=1;exitDx=0;exitDy=0;entryX=0.5;entryY=0;entryDx=0;entryDy=0;" edge="1" parent="1" source="oRcW_YH9L-Gpv4BiR_Wo-9" target="oRcW_YH9L-Gpv4BiR_Wo-10">
          <mxGeometry width="50" height="50" relative="1" as="geometry">
            <mxPoint x="380" y="260" as="sourcePoint" />
            <mxPoint x="380" y="290" as="targetPoint" />
          </mxGeometry>
        </mxCell>
        <mxCell id="oRcW_YH9L-Gpv4BiR_Wo-15" value="5" style="ellipse;whiteSpace=wrap;html=1;aspect=fixed;" vertex="1" parent="1">
          <mxGeometry x="340" y="460" width="60" height="60" as="geometry" />
        </mxCell>
        <mxCell id="oRcW_YH9L-Gpv4BiR_Wo-16" value="" style="endArrow=classic;html=1;exitX=0.5;exitY=1;exitDx=0;exitDy=0;entryX=0.5;entryY=0;entryDx=0;entryDy=0;" edge="1" parent="1" target="oRcW_YH9L-Gpv4BiR_Wo-15">
          <mxGeometry width="50" height="50" relative="1" as="geometry">
            <mxPoint x="370" y="430" as="sourcePoint" />
            <mxPoint x="380" y="380" as="targetPoint" />
          </mxGeometry>
        </mxCell>
        <mxCell id="oRcW_YH9L-Gpv4BiR_Wo-17" value="6" style="ellipse;whiteSpace=wrap;html=1;aspect=fixed;" vertex="1" parent="1">
          <mxGeometry x="340" y="550" width="60" height="60" as="geometry" />
        </mxCell>
        <mxCell id="oRcW_YH9L-Gpv4BiR_Wo-18" value="" style="endArrow=classic;html=1;exitX=0.5;exitY=1;exitDx=0;exitDy=0;entryX=0.5;entryY=0;entryDx=0;entryDy=0;" edge="1" parent="1" target="oRcW_YH9L-Gpv4BiR_Wo-17">
          <mxGeometry width="50" height="50" relative="1" as="geometry">
            <mxPoint x="370" y="520" as="sourcePoint" />
            <mxPoint x="380" y="470" as="targetPoint" />
          </mxGeometry>
        </mxCell>
        <mxCell id="oRcW_YH9L-Gpv4BiR_Wo-19" value="" style="endArrow=classic;html=1;exitX=0;exitY=0.5;exitDx=0;exitDy=0;entryX=0.5;entryY=0;entryDx=0;entryDy=0;" edge="1" parent="1" source="oRcW_YH9L-Gpv4BiR_Wo-17" target="oRcW_YH9L-Gpv4BiR_Wo-20">
          <mxGeometry width="50" height="50" relative="1" as="geometry">
            <mxPoint x="270" y="670" as="sourcePoint" />
            <mxPoint x="320" y="620" as="targetPoint" />
            <Array as="points">
              <mxPoint x="260" y="580" />
            </Array>
          </mxGeometry>
        </mxCell>
        <mxCell id="oRcW_YH9L-Gpv4BiR_Wo-20" value="14" style="ellipse;whiteSpace=wrap;html=1;aspect=fixed;" vertex="1" parent="1">
          <mxGeometry x="230" y="1140" width="60" height="60" as="geometry" />
        </mxCell>
        <mxCell id="oRcW_YH9L-Gpv4BiR_Wo-21" value="7" style="ellipse;whiteSpace=wrap;html=1;aspect=fixed;" vertex="1" parent="1">
          <mxGeometry x="450" y="640" width="60" height="60" as="geometry" />
        </mxCell>
        <mxCell id="oRcW_YH9L-Gpv4BiR_Wo-22" value="" style="endArrow=classic;html=1;exitX=1;exitY=0.5;exitDx=0;exitDy=0;entryX=0.5;entryY=0;entryDx=0;entryDy=0;" edge="1" parent="1" source="oRcW_YH9L-Gpv4BiR_Wo-17" target="oRcW_YH9L-Gpv4BiR_Wo-21">
          <mxGeometry width="50" height="50" relative="1" as="geometry">
            <mxPoint x="350" y="590" as="sourcePoint" />
            <mxPoint x="270" y="650" as="targetPoint" />
            <Array as="points">
              <mxPoint x="480" y="580" />
            </Array>
          </mxGeometry>
        </mxCell>
        <mxCell id="oRcW_YH9L-Gpv4BiR_Wo-23" value="8" style="ellipse;whiteSpace=wrap;html=1;aspect=fixed;" vertex="1" parent="1">
          <mxGeometry x="450" y="730" width="60" height="60" as="geometry" />
        </mxCell>
        <mxCell id="oRcW_YH9L-Gpv4BiR_Wo-24" value="" style="endArrow=classic;html=1;exitX=0.5;exitY=1;exitDx=0;exitDy=0;entryX=0.5;entryY=0;entryDx=0;entryDy=0;" edge="1" parent="1" source="oRcW_YH9L-Gpv4BiR_Wo-21" target="oRcW_YH9L-Gpv4BiR_Wo-23">
          <mxGeometry width="50" height="50" relative="1" as="geometry">
            <mxPoint x="380" y="530" as="sourcePoint" />
            <mxPoint x="380" y="560" as="targetPoint" />
          </mxGeometry>
        </mxCell>
        <mxCell id="oRcW_YH9L-Gpv4BiR_Wo-39" value="" style="edgeStyle=orthogonalEdgeStyle;rounded=0;orthogonalLoop=1;jettySize=auto;html=1;" edge="1" parent="1" source="oRcW_YH9L-Gpv4BiR_Wo-25" target="oRcW_YH9L-Gpv4BiR_Wo-27">
          <mxGeometry relative="1" as="geometry" />
        </mxCell>
        <mxCell id="oRcW_YH9L-Gpv4BiR_Wo-25" value="9" style="ellipse;whiteSpace=wrap;html=1;aspect=fixed;" vertex="1" parent="1">
          <mxGeometry x="450" y="820" width="60" height="60" as="geometry" />
        </mxCell>
        <mxCell id="oRcW_YH9L-Gpv4BiR_Wo-26" value="" style="endArrow=classic;html=1;exitX=0.5;exitY=1;exitDx=0;exitDy=0;entryX=0.5;entryY=0;entryDx=0;entryDy=0;" edge="1" parent="1" target="oRcW_YH9L-Gpv4BiR_Wo-25">
          <mxGeometry width="50" height="50" relative="1" as="geometry">
            <mxPoint x="480" y="790" as="sourcePoint" />
            <mxPoint x="380" y="650" as="targetPoint" />
          </mxGeometry>
        </mxCell>
        <mxCell id="oRcW_YH9L-Gpv4BiR_Wo-27" value="10" style="ellipse;whiteSpace=wrap;html=1;aspect=fixed;" vertex="1" parent="1">
          <mxGeometry x="450" y="910" width="60" height="60" as="geometry" />
        </mxCell>
        <mxCell id="oRcW_YH9L-Gpv4BiR_Wo-28" value="" style="endArrow=classic;html=1;exitX=0.5;exitY=1;exitDx=0;exitDy=0;entryX=0.5;entryY=0;entryDx=0;entryDy=0;" edge="1" parent="1" target="oRcW_YH9L-Gpv4BiR_Wo-27">
          <mxGeometry width="50" height="50" relative="1" as="geometry">
            <mxPoint x="480" y="880" as="sourcePoint" />
            <mxPoint x="380" y="740" as="targetPoint" />
          </mxGeometry>
        </mxCell>
        <mxCell id="oRcW_YH9L-Gpv4BiR_Wo-29" value="11" style="ellipse;whiteSpace=wrap;html=1;aspect=fixed;" vertex="1" parent="1">
          <mxGeometry x="450" y="1000" width="60" height="60" as="geometry" />
        </mxCell>
        <mxCell id="oRcW_YH9L-Gpv4BiR_Wo-30" value="" style="endArrow=classic;html=1;exitX=0.5;exitY=1;exitDx=0;exitDy=0;entryX=0.5;entryY=0;entryDx=0;entryDy=0;" edge="1" parent="1" target="oRcW_YH9L-Gpv4BiR_Wo-29" source="oRcW_YH9L-Gpv4BiR_Wo-27">
          <mxGeometry width="50" height="50" relative="1" as="geometry">
            <mxPoint x="480" y="980" as="sourcePoint" />
            <mxPoint x="380" y="840" as="targetPoint" />
          </mxGeometry>
        </mxCell>
        <mxCell id="oRcW_YH9L-Gpv4BiR_Wo-31" value="13" style="ellipse;whiteSpace=wrap;html=1;aspect=fixed;" vertex="1" parent="1">
          <mxGeometry x="360" y="1060" width="60" height="60" as="geometry" />
        </mxCell>
        <mxCell id="oRcW_YH9L-Gpv4BiR_Wo-32" value="" style="endArrow=classic;html=1;exitX=0;exitY=0.5;exitDx=0;exitDy=0;entryX=0.5;entryY=0;entryDx=0;entryDy=0;" edge="1" parent="1" source="oRcW_YH9L-Gpv4BiR_Wo-29" target="oRcW_YH9L-Gpv4BiR_Wo-31">
          <mxGeometry width="50" height="50" relative="1" as="geometry">
            <mxPoint x="370" y="1020" as="sourcePoint" />
            <mxPoint x="420" y="970" as="targetPoint" />
            <Array as="points">
              <mxPoint x="390" y="1030" />
            </Array>
          </mxGeometry>
        </mxCell>
        <mxCell id="oRcW_YH9L-Gpv4BiR_Wo-33" value="" style="endArrow=classic;html=1;exitX=0.5;exitY=1;exitDx=0;exitDy=0;entryX=1;entryY=0.5;entryDx=0;entryDy=0;" edge="1" parent="1" source="oRcW_YH9L-Gpv4BiR_Wo-31" target="oRcW_YH9L-Gpv4BiR_Wo-20">
          <mxGeometry width="50" height="50" relative="1" as="geometry">
            <mxPoint x="330" y="1060" as="sourcePoint" />
            <mxPoint x="380" y="1010" as="targetPoint" />
            <Array as="points">
              <mxPoint x="390" y="1170" />
            </Array>
          </mxGeometry>
        </mxCell>
        <mxCell id="oRcW_YH9L-Gpv4BiR_Wo-34" value="15" style="ellipse;whiteSpace=wrap;html=1;aspect=fixed;" vertex="1" parent="1">
          <mxGeometry x="230" y="1250" width="60" height="60" as="geometry" />
        </mxCell>
        <mxCell id="oRcW_YH9L-Gpv4BiR_Wo-35" value="" style="endArrow=classic;html=1;exitX=0.5;exitY=1;exitDx=0;exitDy=0;entryX=0.5;entryY=0;entryDx=0;entryDy=0;" edge="1" parent="1" source="oRcW_YH9L-Gpv4BiR_Wo-20" target="oRcW_YH9L-Gpv4BiR_Wo-34">
          <mxGeometry width="50" height="50" relative="1" as="geometry">
            <mxPoint x="220" y="1310" as="sourcePoint" />
            <mxPoint x="270" y="1260" as="targetPoint" />
          </mxGeometry>
        </mxCell>
        <mxCell id="oRcW_YH9L-Gpv4BiR_Wo-36" value="12" style="ellipse;whiteSpace=wrap;html=1;aspect=fixed;" vertex="1" parent="1">
          <mxGeometry x="540" y="1060" width="60" height="60" as="geometry" />
        </mxCell>
        <mxCell id="oRcW_YH9L-Gpv4BiR_Wo-37" value="" style="endArrow=classic;html=1;exitX=1;exitY=0.5;exitDx=0;exitDy=0;entryX=0.5;entryY=0;entryDx=0;entryDy=0;" edge="1" parent="1" target="oRcW_YH9L-Gpv4BiR_Wo-36" source="oRcW_YH9L-Gpv4BiR_Wo-29">
          <mxGeometry width="50" height="50" relative="1" as="geometry">
            <mxPoint x="630" y="1040" as="sourcePoint" />
            <mxPoint x="600" y="980" as="targetPoint" />
            <Array as="points">
              <mxPoint x="570" y="1030" />
            </Array>
          </mxGeometry>
        </mxCell>
        <mxCell id="oRcW_YH9L-Gpv4BiR_Wo-38" value="16" style="ellipse;whiteSpace=wrap;html=1;aspect=fixed;" vertex="1" parent="1">
          <mxGeometry x="540" y="1340" width="60" height="60" as="geometry" />
        </mxCell>
        <mxCell id="oRcW_YH9L-Gpv4BiR_Wo-40" value="" style="endArrow=classic;html=1;exitX=0.5;exitY=1;exitDx=0;exitDy=0;entryX=0.5;entryY=0;entryDx=0;entryDy=0;" edge="1" parent="1" source="oRcW_YH9L-Gpv4BiR_Wo-36" target="oRcW_YH9L-Gpv4BiR_Wo-38">
          <mxGeometry width="50" height="50" relative="1" as="geometry">
            <mxPoint x="490" y="980" as="sourcePoint" />
            <mxPoint x="490" y="1010" as="targetPoint" />
          </mxGeometry>
        </mxCell>
        <mxCell id="oRcW_YH9L-Gpv4BiR_Wo-41" value="" style="endArrow=classic;html=1;exitX=0.5;exitY=1;exitDx=0;exitDy=0;entryX=0;entryY=0.5;entryDx=0;entryDy=0;" edge="1" parent="1" source="oRcW_YH9L-Gpv4BiR_Wo-34" target="oRcW_YH9L-Gpv4BiR_Wo-38">
          <mxGeometry width="50" height="50" relative="1" as="geometry">
            <mxPoint x="390" y="1260" as="sourcePoint" />
            <mxPoint x="440" y="1210" as="targetPoint" />
            <Array as="points">
              <mxPoint x="260" y="1370" />
            </Array>
          </mxGeometry>
        </mxCell>
        <mxCell id="oRcW_YH9L-Gpv4BiR_Wo-42" value="R2" style="text;html=1;align=center;verticalAlign=middle;resizable=0;points=[];autosize=1;strokeColor=none;" vertex="1" parent="1">
          <mxGeometry x="420" y="1230" width="30" height="20" as="geometry" />
        </mxCell>
        <mxCell id="oRcW_YH9L-Gpv4BiR_Wo-43" value="R1" style="text;html=1;align=center;verticalAlign=middle;resizable=0;points=[];autosize=1;strokeColor=none;" vertex="1" parent="1">
          <mxGeometry x="340" y="790" width="30" height="20" as="geometry" />
        </mxCell>
        <mxCell id="oRcW_YH9L-Gpv4BiR_Wo-45" value="F" style="text;html=1;align=center;verticalAlign=middle;resizable=0;points=[];autosize=1;strokeColor=none;" vertex="1" parent="1">
          <mxGeometry x="400" y="1010" width="20" height="20" as="geometry" />
        </mxCell>
        <mxCell id="oRcW_YH9L-Gpv4BiR_Wo-46" value="V" style="text;html=1;align=center;verticalAlign=middle;resizable=0;points=[];autosize=1;strokeColor=none;" vertex="1" parent="1">
          <mxGeometry x="540" y="1010" width="20" height="20" as="geometry" />
        </mxCell>
        <mxCell id="oRcW_YH9L-Gpv4BiR_Wo-47" value="V" style="text;html=1;align=center;verticalAlign=middle;resizable=0;points=[];autosize=1;strokeColor=none;" vertex="1" parent="1">
          <mxGeometry x="440" y="560" width="20" height="20" as="geometry" />
        </mxCell>
        <mxCell id="oRcW_YH9L-Gpv4BiR_Wo-48" value="F" style="text;html=1;align=center;verticalAlign=middle;resizable=0;points=[];autosize=1;strokeColor=none;" vertex="1" parent="1">
          <mxGeometry x="240" y="810" width="20" height="20" as="geometry" />
        </mxCell>
      </root>
    </mxGraphModel>
  </diagram>
</mxfile>
